<svg width="124.113281" height="48.000000" viewBox="0 0 124.113 48" fill="none" xmlns="http://www.w3.org/2000/svg" xmlns:xlink="http://www.w3.org/1999/xlink">
	<desc>
			Created with Pixso.
	</desc>
	<defs>
		<clipPath id="clip333_1358">
			<rect id="Company logo" width="124.112823" height="48.000000" fill="white" fill-opacity="0"/>
		</clipPath>
	</defs>
	<rect id="Company logo" width="124.112823" height="48.000000" fill="#FFFFFF" fill-opacity="0"/>
	<g clip-path="url(#clip333_1358)">
		<path id="Vector" d="M71.29 34.52C73.62 34.28 78.72 33.74 79.63 34.78C80.55 35.82 78.61 40.11 77.75 42.03L77.74 42.03C77.48 42.61 78.04 42.85 78.64 42.41C82.49 39.55 83.48 33.57 82.7 32.71C81.91 31.85 75.18 31.11 71.07 33.67C70.44 34.06 70.55 34.6 71.25 34.53L71.29 34.52ZM50.1 45C59.06 45 69.47 42.49 76.65 37.8C77.83 37.02 76.82 35.86 75.6 36.31C67.56 39.34 58.81 40.8 50.85 40.8C39.06 40.8 27.64 37.94 18.41 33.17C17.6 32.75 17 33.49 17.67 34.03C26.22 40.88 37.53 45 50.1 45Z" fill="#FF9900" fill-opacity="1.000000" fill-rule="evenodd"/>
		<path id="Vector" d="M14.22 31.16C14.5 31.29 14.87 31.28 15.12 31.08L15.13 31.09C15.89 30.49 17.28 29.41 18.06 28.84C18.37 28.61 18.32 28.24 18.07 27.93C17.37 27.08 16.63 26.38 16.63 24.79L16.63 19.51C16.63 19.33 16.63 19.15 16.63 18.97C16.65 16.95 16.66 15.1 14.95 13.68C13.48 12.43 11.05 12 9.19 12C5.55 12 1.49 13.2 0.64 17.18C0.55 17.61 0.89 17.83 1.21 17.89L4.92 18.24C5.26 18.23 5.51 17.93 5.58 17.62C5.9 16.25 7.2 15.59 8.65 15.59C9.44 15.59 10.33 15.85 10.8 16.47C11.28 17.1 11.27 17.93 11.26 18.67C11.26 18.76 11.26 18.84 11.26 18.93L11.26 19.36C9.05 19.59 6.15 19.73 4.07 20.54C1.68 21.46 0 23.33 0 26.08C0 29.6 2.5 31.36 5.72 31.36C8.44 31.36 9.92 30.79 12.02 28.9C12.72 29.79 12.95 30.22 14.22 31.16ZM65.25 31.08C65 31.28 64.63 31.29 64.35 31.16C63.08 30.22 62.85 29.79 62.15 28.9C60.05 30.79 58.57 31.36 55.85 31.36C52.63 31.36 50.13 29.6 50.13 26.08C50.13 23.33 51.8 21.46 54.2 20.54C56.28 19.73 59.18 19.59 61.39 19.36L61.39 18.93C61.39 18.84 61.39 18.76 61.4 18.68C61.4 17.93 61.41 17.1 60.92 16.47C60.46 15.85 59.57 15.59 58.78 15.59C57.32 15.59 56.03 16.25 55.71 17.62C55.64 17.93 55.39 18.23 55.04 18.24L51.34 17.89C51.02 17.83 50.67 17.61 50.77 17.18C51.62 13.2 55.68 12 59.32 12C61.18 12 63.61 12.43 65.08 13.68C66.79 15.1 66.78 16.95 66.76 18.97C66.76 19.15 66.76 19.33 66.76 19.51L66.76 24.79C66.76 26.38 67.5 27.08 68.2 27.93C68.44 28.24 68.5 28.61 68.19 28.84C67.41 29.41 66.02 30.49 65.25 31.09L65.25 31.08ZM21.74 31.12L25.56 31.12C25.97 31.12 26.3 30.84 26.3 30.49L26.3 21.28C26.3 21.2 26.3 21.13 26.3 21.06C26.3 19.07 26.29 16.48 28.94 16.48C31.38 16.48 31.34 18.78 31.3 20.66C31.3 20.87 31.3 21.08 31.3 21.28L31.3 30.49C31.3 30.83 31.6 31.1 31.99 31.12L35.81 31.12C36.22 31.12 36.55 30.84 36.55 30.49L36.55 21.28C36.55 21.2 36.55 21.12 36.55 21.04C36.54 20.06 36.54 18.75 36.9 17.94C37.29 17.07 38.26 16.52 39.19 16.52C40.29 16.52 41.15 16.85 41.43 18.02C41.58 18.58 41.56 19.87 41.55 20.74C41.55 20.95 41.54 21.13 41.54 21.28L41.54 30.49C41.54 30.83 41.85 31.1 42.23 31.12L46.05 31.12C46.46 31.12 46.79 30.84 46.79 30.49L46.79 19.52C46.79 19.25 46.8 18.98 46.8 18.7C46.83 17.06 46.86 15.32 45.83 14.06C44.76 12.75 43 12.16 41.4 12.16C39.15 12.16 37.05 13.19 36.12 15.38C35.05 13.19 33.55 12.16 31.16 12.16C28.8 12.16 27.05 13.19 26.12 15.38L26.05 15.38L26.05 13.11C26.03 12.8 25.73 12.54 25.36 12.53L21.79 12.53C21.38 12.53 21.06 12.81 21.06 13.15L21.06 30.55C21.08 30.86 21.37 31.1 21.74 31.12ZM96.24 12.16C101.91 12.16 104.99 16.48 104.99 21.97C104.99 27.28 101.59 31.49 96.24 31.49C90.67 31.49 87.63 27.17 87.63 21.79C87.63 16.37 90.71 12.16 96.24 12.16ZM108.53 31.12L112.34 31.12C112.75 31.12 113.09 30.84 113.09 30.49L113.09 21.13C113.09 19.96 113.16 18.9 113.7 17.83C114.12 17 114.98 16.44 115.91 16.44C118.35 16.44 118.32 18.81 118.3 20.67C118.3 20.83 118.3 20.98 118.3 21.13L118.3 30.58C118.34 30.87 118.63 31.1 118.98 31.12L122.81 31.12C123.19 31.12 123.51 30.88 123.55 30.58L123.55 19.63C123.55 17.94 123.55 15.6 122.55 14.21C121.47 12.71 119.8 12.16 118.09 12.16C115.45 12.16 113.94 13.3 112.87 15.68L112.8 15.68L112.8 13.02C112.73 12.74 112.45 12.54 112.12 12.53L108.58 12.53C108.19 12.53 107.87 12.78 107.84 13.1L107.85 30.49C107.85 30.83 108.15 31.1 108.53 31.12ZM71.41 15.6L71.41 13.11C71.41 12.73 71.74 12.48 72.12 12.48L84.69 12.48C85.09 12.48 85.42 12.74 85.42 13.11L85.42 15.24C85.41 15.6 85.07 16.07 84.47 16.8L77.96 25.05C80.38 24.99 82.93 25.31 85.13 26.41C85.62 26.66 85.76 27.02 85.79 27.38L85.79 30.03C85.79 30.39 85.34 30.82 84.87 30.6C81 28.8 75.87 28.61 71.59 30.62C71.16 30.83 70.7 30.41 70.7 30.05L70.7 27.52C70.7 27.12 70.7 26.43 71.16 25.81L78.71 16.22L72.14 16.22C71.74 16.22 71.41 15.97 71.41 15.6ZM96.27 15.71C93.45 15.71 93.28 19.12 93.28 21.24L93.28 21.32C93.28 23.47 93.27 27.9 96.24 27.9C99.2 27.9 99.34 24.24 99.34 22.01C99.34 20.54 99.27 18.79 98.77 17.4C98.34 16.18 97.49 15.71 96.27 15.71ZM11.26 23C11.26 22.94 11.26 22.88 11.26 22.82L11.26 22.08C8.5 22.08 5.58 22.61 5.58 25.49C5.58 26.96 6.43 27.95 7.9 27.95C8.98 27.95 9.94 27.36 10.55 26.41C11.27 25.29 11.26 24.24 11.26 23ZM61.39 22.82C61.39 22.88 61.39 22.94 61.39 23C61.4 24.24 61.4 25.29 60.68 26.41C60.07 27.36 59.1 27.95 58.03 27.95C56.56 27.95 55.7 26.96 55.7 25.49C55.7 22.61 58.62 22.08 61.39 22.08L61.39 22.82Z" fill="#000000" fill-opacity="1.000000" fill-rule="evenodd"/>
	</g>
</svg>
