<svg width="126.369141" height="48.000000" viewBox="0 0 126.369 48" fill="none" xmlns="http://www.w3.org/2000/svg" xmlns:xlink="http://www.w3.org/1999/xlink">
	<desc>
			Created with Pixso.
	</desc>
	<defs>
		<clipPath id="clip333_1359">
			<rect id="Company logo" width="126.369431" height="48.000000" fill="white" fill-opacity="0"/>
		</clipPath>
	</defs>
	<rect id="Company logo" width="126.369431" height="48.000000" fill="#FFFFFF" fill-opacity="0"/>
	<g clip-path="url(#clip333_1359)">
		<path id="Vector" d="M125.57 30.56C120.31 38.46 111.99 36.16 109.49 34.37C108.43 35.01 106.56 36.41 104.07 36.25C98.77 35.91 96.88 29.2 96.88 29.2C96.91 29.22 95.3 29.69 94.43 29.68C94.41 31.65 92.5 36.35 87.32 36.29C81.5 36.22 80.32 28.55 80.32 28.55C80.32 28.55 79.75 29.26 77.55 29.97C77.66 28.46 77.58 36.06 70.61 36.17C65.1 36.26 63.62 28.43 63.62 28.43C63.62 28.43 62.66 29.31 60.81 29.61C60.93 28.08 60.74 36.2 53.77 36.17C49.06 36.15 47.45 31.35 47.58 30.68C47.74 29.83 45.99 36.29 41.41 36.19C39.52 36.14 38.12 34.93 37.24 33.32C36.05 34.51 34.34 36.19 32.41 36.19C28.96 36.19 27.43 33.63 27.69 26.31C27.71 25.45 27.64 25.1 26.67 24.97C26.09 24.89 25.49 24.72 24.85 24.64C24.65 25.24 22.93 36 17.01 36.2C15.03 36.27 13.94 34.74 13.05 33.61C11.69 35.21 9.88 36.25 7.31 36.25C2.96 36.25 0 33.13 0 29.28C0 25.44 2.96 22.32 7.31 22.32C8.08 22.32 8.3 22.42 9 22.6C7.56 10.93 10.97 9.11 13.96 9.11C16.83 9.11 21.72 15.01 14.83 29.97C16.36 34.43 19.66 34.18 21.25 24.99C21.57 23.13 20.71 20.61 22.05 20.25C24.5 19.61 24.76 21.54 25.91 21.86C27.13 22.2 27.84 22.17 29.01 22.38C31 22.73 31.78 23.68 31.54 25.79C31.25 28.47 30.73 32.37 32.29 32.84C33.41 33.19 35.46 31.12 35.82 30C36.18 28.87 36.26 28.48 36.29 27.65C36.34 25.88 36.4 24.58 36.74 23.25C36.89 22.73 37.05 22.38 37.71 22.36C38.26 22.35 39.25 22.2 39.69 22.51C40.27 22.89 40.2 23.29 40.14 24.33C39.46 39.13 44.68 31.74 46.24 25.82C45.68 19.13 46.07 9.23 50.8 9.06C53.26 8.98 54.34 10.73 54.47 12.03C54.8 15.71 52.91 21.81 50.41 25.91C48.99 34.29 56.64 35.94 57.87 29.26C55.87 28.42 53.7 25 55.46 23.33C56.45 22.4 60.57 23.74 60.63 26.67C62.65 26.19 62.92 25.18 62.95 25.35C62.39 18.66 62.91 9.23 67.64 9.06C70.1 8.98 71.19 10.73 71.31 12.03C71.64 15.71 69.75 21.81 67.25 25.91C65.83 34.29 73.49 35.94 74.71 29.26C73.23 29.01 70.1 25.37 71.9 23.33C72.87 22.25 76.97 24.51 77.42 26.77C79.36 26.28 79.63 25.3 79.66 25.47C79.1 18.78 79.61 9.35 84.34 9.18C86.81 9.1 87.89 10.84 88.01 12.15C88.35 15.83 86.46 21.93 83.96 26.03C82.54 34.4 90.19 36.06 91.42 29.38C89.38 29.08 86.48 25.24 88.81 23.28C89.75 22.49 93.3 24.53 94.14 26.85C95.29 26.81 96.01 26.46 96.17 26.42C94.32 18.57 95.7 9.14 100.78 9.06C103.54 9.02 106.23 10.38 105.04 17.86C103.92 24.99 99.87 27.98 99.88 28.02C100.11 28.88 102.19 36.03 107.43 32.25C107.15 31.71 106.88 31.16 106.73 30.48C105.86 26.56 107.57 22.14 112.2 21.42C114.85 21.01 117.35 22.15 117.75 24.74C118.4 28.96 114.09 32.02 112.46 32.68C111.72 32.31 119.1 36.51 123.48 28.1C123.73 27.62 124.04 27.66 124.43 27.91C124.71 28.09 126.31 29.42 125.57 30.56ZM10.48 28.25C10.26 27.66 9.8 26.36 9.64 25.79C8.75 25.11 8.11 25 6.97 25C4.43 25 2.93 27.08 2.93 29.32C2.93 31.56 4.56 33.64 7.1 33.64C9.3 33.64 10.98 32.32 11.49 30.44C11.13 29.71 10.78 29.04 10.48 28.25ZM13.9 12.2C12.11 12.2 11.5 15.97 11.62 19.19C11.73 22.03 12.62 24.54 13.09 25.66C13.21 25.8 13.19 25.71 13.29 25.86C16.39 19.84 15.1 12.2 13.9 12.2ZM51.05 12.31C48.75 12.08 48.76 20.6 49.05 22.51C50.25 20.81 52.33 12.77 51.05 12.31ZM67.89 12.31C65.59 12.08 65.6 20.6 65.89 22.51C67.08 20.81 69.17 12.77 67.89 12.31ZM84.6 12.43C82.29 12.2 82.31 20.71 82.59 22.62C83.79 20.93 85.87 12.89 84.6 12.43ZM101.04 11.82C97.45 12.46 98.28 23.07 98.83 24.94C103.06 19.78 103.15 11.62 101.04 11.82ZM114.51 25.09C114.32 24.41 113.41 24.05 112.78 24.14C110.98 24.35 109.23 26.35 109.9 29.38C110.05 30.05 110.43 30.67 110.43 30.65C114.46 28.25 114.81 26.36 114.51 25.09ZM38.42 20.02C37.91 20.02 37.4 19.88 36.97 19.63C36.54 19.37 36.21 19.01 36.01 18.59C35.82 18.17 35.76 17.7 35.86 17.26C35.96 16.81 36.21 16.4 36.58 16.07C36.94 15.75 37.41 15.53 37.91 15.44C38.42 15.35 38.94 15.4 39.42 15.57C39.9 15.75 40.3 16.04 40.59 16.42C40.87 16.8 41.03 17.25 41.03 17.71C41.03 18.01 40.96 18.31 40.83 18.59C40.7 18.87 40.51 19.13 40.26 19.34C40.02 19.55 39.74 19.73 39.42 19.84C39.1 19.96 38.76 20.02 38.42 20.02Z" fill="#0D0C22" fill-opacity="1.000000" fill-rule="evenodd"/>
	</g>
</svg>
