<svg width="128.626953" height="48.000000" viewBox="0 0 128.627 48" fill="none" xmlns="http://www.w3.org/2000/svg" xmlns:xlink="http://www.w3.org/1999/xlink">
	<desc>
			Created with Pixso.
	</desc>
	<defs>
		<clipPath id="clip333_1360">
			<rect id="Company logo" width="128.626022" height="48.000000" fill="white" fill-opacity="0"/>
		</clipPath>
	</defs>
	<rect id="Company logo" width="128.626022" height="48.000000" fill="#FFFFFF" fill-opacity="0"/>
	<g clip-path="url(#clip333_1360)">
		<path id="Vector" d="M13.88 13.1L13.88 22.19L4.47 22.19L4.47 13.1L0 13.1L0 34.79L4.47 34.79L4.47 26L13.88 26L13.88 34.79L18.35 34.79L18.35 13.1L13.88 13.1ZM64.08 19.45C64.08 17.54 65.5 16.94 67.06 16.94C68.32 16.94 69.98 17.79 71.06 18.81L73.84 15.91C72.45 14.25 69.64 13.1 67.34 13.1C62.74 13.1 59.41 15.49 59.41 19.45C59.41 26.79 69.54 24.46 69.54 28.57C69.54 29.84 68.15 30.96 66.56 30.96C64.05 30.96 63.24 29.87 62.08 28.72L59 31.56C60.98 33.71 63.41 34.8 66.32 34.8C70.69 34.8 74.21 32.38 74.21 28.6C74.21 20.45 64.08 22.98 64.08 19.45L64.08 19.45ZM48.8 18.6C46.7 18.6 45.24 19.14 43.82 20.37L43.82 13.23L39.57 13.23L39.57 26.47C39.57 31.42 43.62 34.81 48.16 34.81C53.19 34.81 57.63 31.36 57.63 26.71C57.63 22.12 53.55 18.6 48.8 18.6L48.8 18.6ZM123.53 28.9C123.53 30.37 124.24 31.33 126.75 31.33L126.75 31.33C127.22 31.33 127.76 31.3 128.24 31.27L127.19 34.69C126.63 34.78 126.06 34.82 125.49 34.81C121.87 34.81 119.23 33.1 119.23 29.71L119.23 16.44L123.53 14.73L123.53 19.08L127.42 19.08L127.42 22.38L123.53 22.38L123.53 28.9ZM85.45 18.4C90.5 18.4 94.92 21.85 94.92 26.51L94.92 26.51C94.92 31.11 90.84 34.62 86.1 34.62C84 34.62 82.53 34.08 81.12 32.85L81.12 40L76.87 40L76.87 26.75C76.87 21.8 80.91 18.4 85.45 18.4ZM31.58 30.1C32.27 29.49 32.66 28.65 32.66 27.78L32.66 18.49L36.89 18.49L36.89 27.78C36.89 29.65 36.05 31.43 34.56 32.75C33.08 34.07 31.06 34.81 28.96 34.81C26.85 34.81 24.83 34.07 23.35 32.75C21.86 31.43 21.02 29.65 21.02 27.78L21.02 18.49L25.26 18.49L25.26 27.78C25.26 28.65 25.65 29.49 26.35 30.1C27.04 30.71 27.98 31.06 28.96 31.06C29.94 31.06 30.89 30.71 31.58 30.1ZM90.09 28.84C90.62 28.13 90.9 27.31 90.9 26.46C90.9 25.33 90.39 24.24 89.49 23.44C88.59 22.64 87.36 22.19 86.08 22.19C85.13 22.19 84.2 22.44 83.41 22.91C82.61 23.38 82 24.05 81.63 24.83C81.26 25.61 81.17 26.47 81.36 27.3C81.54 28.13 82 28.89 82.67 29.48C83.35 30.08 84.21 30.49 85.14 30.65C86.08 30.82 87.05 30.73 87.93 30.41C88.81 30.09 89.56 29.54 90.09 28.84ZM48.78 31.03C47.83 31.03 46.89 30.78 46.1 30.31C45.31 29.84 44.69 29.17 44.33 28.39C43.96 27.61 43.87 26.75 44.05 25.92C44.24 25.09 44.7 24.33 45.37 23.74C46.04 23.14 46.9 22.73 47.84 22.57C48.77 22.4 49.74 22.49 50.62 22.81C51.5 23.13 52.25 23.68 52.79 24.38C53.32 25.09 53.6 25.91 53.6 26.76C53.6 27.89 53.09 28.98 52.19 29.78C51.28 30.58 50.06 31.03 48.78 31.03Z" fill="#33475B" fill-opacity="1.000000" fill-rule="evenodd"/>
		<path id="Vector" d="M108.6 18.34L108.6 14.6C109.16 14.37 109.63 14 109.96 13.54C110.3 13.08 110.47 12.55 110.48 12L110.48 11.92C110.47 11.15 110.13 10.42 109.52 9.88C108.92 9.34 108.09 9.04 107.23 9.04L107.13 9.04C106.27 9.04 105.44 9.34 104.84 9.88C104.23 10.42 103.88 11.15 103.88 11.92L103.88 12C103.88 12.55 104.06 13.08 104.39 13.54C104.73 14 105.2 14.37 105.76 14.6L105.76 18.34C104.15 18.56 102.64 19.15 101.38 20.05L89.78 12.06C89.86 11.79 89.91 11.52 89.91 11.25C89.91 10.6 89.7 9.98 89.3 9.44C88.89 8.91 88.32 8.49 87.65 8.24C86.98 8 86.25 7.93 85.53 8.06C84.82 8.18 84.17 8.49 83.66 8.94C83.14 9.4 82.79 9.98 82.65 10.61C82.51 11.24 82.58 11.89 82.86 12.48C83.14 13.08 83.6 13.58 84.21 13.94C84.81 14.3 85.52 14.49 86.24 14.49C86.88 14.49 87.5 14.34 88.05 14.05L99.45 21.92C98.43 23.29 97.89 24.91 97.92 26.56C97.94 28.2 98.53 29.81 99.6 31.15L96.13 34.23C95.85 34.15 95.56 34.11 95.27 34.1C94.67 34.1 94.09 34.26 93.59 34.56C93.1 34.85 92.71 35.27 92.48 35.75C92.25 36.24 92.2 36.78 92.31 37.3C92.43 37.81 92.72 38.29 93.14 38.66C93.56 39.04 94.09 39.29 94.68 39.39C95.26 39.5 95.87 39.44 96.42 39.24C96.97 39.04 97.44 38.7 97.77 38.26C98.1 37.82 98.28 37.3 98.28 36.77C98.27 36.52 98.23 36.26 98.14 36.01L101.57 32.97C102.69 33.73 103.99 34.25 105.37 34.49C106.76 34.74 108.18 34.7 109.55 34.38C110.91 34.06 112.18 33.47 113.24 32.66C114.31 31.84 115.15 30.82 115.7 29.67C116.26 28.52 116.51 27.27 116.43 26.02C116.36 24.77 115.96 23.56 115.28 22.47C114.59 21.37 113.64 20.43 112.48 19.72C111.32 19.01 110 18.54 108.6 18.34ZM107.18 30.66C106.24 30.66 105.32 30.41 104.54 29.95C103.76 29.49 103.15 28.83 102.79 28.06C102.43 27.29 102.34 26.44 102.52 25.63C102.71 24.81 103.16 24.06 103.82 23.47C104.49 22.88 105.33 22.48 106.25 22.32C107.18 22.16 108.13 22.24 109 22.56C109.87 22.88 110.61 23.42 111.13 24.11C111.65 24.8 111.93 25.62 111.93 26.45C111.93 27.56 111.43 28.64 110.54 29.42C109.65 30.21 108.44 30.66 107.18 30.66Z" fill="#FF7A59" fill-opacity="1.000000" fill-rule="nonzero"/>
	</g>
</svg>
