<svg width="125.240234" height="48.000000" viewBox="0 0 125.24 48" fill="none" xmlns="http://www.w3.org/2000/svg" xmlns:xlink="http://www.w3.org/1999/xlink">
	<desc>
			Created with Pixso.
	</desc>
	<defs>
		<clipPath id="clip333_1362">
			<rect id="Company logo" width="125.241127" height="48.000000" fill="white" fill-opacity="0"/>
		</clipPath>
	</defs>
	<rect id="Company logo" width="125.241127" height="48.000000" fill="#FFFFFF" fill-opacity="0"/>
	<g clip-path="url(#clip333_1362)">
		<path id="Vector" d="M17.22 38.06C15.33 38.35 13.41 38.44 11.43 38.68L5.38 22.97L5.38 39.35C3.5 39.53 1.78 39.76 0 40L0 10L5.02 10L11.9 27.02L11.9 10L17.22 10L17.22 38.06ZM27.63 20.98C29.68 20.98 32.82 20.89 34.7 20.89L34.7 25.58C32.36 25.58 29.61 25.58 27.63 25.67L27.63 32.64C30.74 32.47 33.84 32.23 36.98 32.14L36.98 36.65L22.34 37.68L22.34 10L36.98 10L36.98 14.68L27.63 14.68L27.63 20.98ZM56.65 14.68L51.16 14.68L51.16 36.25C49.38 36.25 47.59 36.25 45.88 36.3L45.88 14.68L40.39 14.68L40.39 10L56.65 10L56.65 14.68ZM65.25 20.66L72.49 20.66L72.49 25.35L65.25 25.35L65.25 35.98L60.06 35.98L60.06 10L74.83 10L74.83 14.68L65.25 14.68L65.25 20.66ZM83.43 31.88C86.44 31.94 89.48 32.14 92.42 32.29L92.42 36.92C87.69 36.66 82.96 36.39 78.14 36.3L78.14 10L83.43 10L83.43 31.88ZM96.88 37.24C98.57 37.33 100.35 37.42 102.07 37.59L102.07 10L96.88 10L96.88 37.24ZM125.24 10L118.53 24.26L125.24 40C123.26 39.76 121.28 39.44 119.29 39.15L115.49 30.47L111.62 38.44C109.71 38.15 107.86 38.06 105.94 37.83L112.75 24.09L106.6 10L112.28 10L115.76 17.88L119.46 10L125.24 10L125.24 10Z" fill="#D81F26" fill-opacity="1.000000" fill-rule="nonzero"/>
	</g>
</svg>
