<svg width="145.550781" height="48.000000" viewBox="0 0 145.551 48" fill="none" xmlns="http://www.w3.org/2000/svg" xmlns:xlink="http://www.w3.org/1999/xlink">
	<desc>
			Created with Pixso.
	</desc>
	<defs>
		<clipPath id="clip333_1361">
			<rect id="Company logo" width="145.550507" height="48.000000" fill="white" fill-opacity="0"/>
		</clipPath>
	</defs>
	<rect id="Company logo" width="145.550507" height="48.000000" fill="#FFFFFF" fill-opacity="0"/>
	<g clip-path="url(#clip333_1361)">
		<path id="Vector" d="M23.96 6.08L2.35 7.47C0.62 7.61 0 8.59 0 9.81L0 30.71C0 31.64 0.38 32.45 1.29 33.52L6.39 39.36C7.22 40.3 7.97 40.5 9.57 40.43L34.65 39.08C36.77 38.95 37.37 38.08 37.37 36.61L37.37 13.1C37.37 12.3 36.98 12.1 35.84 11.36L28.96 7.08C27.3 6.01 26.6 5.87 23.96 6.08ZM10.09 12.71C8.06 12.83 7.6 12.86 6.44 12.03L3.49 9.97C3.18 9.72 3.33 9.37 4.08 9.3L24.84 7.95C26.58 7.82 27.51 8.37 28.18 8.82L31.75 11.09C31.91 11.14 32.3 11.55 31.83 11.55L10.37 12.69C10.28 12.7 10.18 12.7 10.09 12.71ZM106.5 13.69C106.5 14.9 105.37 15.89 103.99 15.89C102.61 15.89 101.48 14.9 101.48 13.69C101.48 12.44 102.61 11.45 103.99 11.45C105.37 11.45 106.5 12.44 106.5 13.69ZM50.7 20.21L50.7 34.77L46.52 34.77L46.52 13.4L50.28 13.4L62.23 27.91L62.52 27.91L62.52 13.4L66.7 13.4L66.7 34.77L62.94 34.77L50.99 20.21L50.7 20.21ZM7.73 36.4L7.73 16.45C7.73 15.58 8.04 15.16 8.95 15.09L33.59 13.81C34.42 13.74 34.81 14.23 34.81 15.09L34.81 34.92C34.81 35.79 34.65 36.52 33.28 36.59L9.7 37.8C8.33 37.87 7.73 37.48 7.73 36.4ZM91.24 18.68L91.24 14.61L95.42 14.61L95.42 18.68L99.39 18.68L99.39 21.61L95.42 21.61L95.42 29.56C95.42 31.18 96.21 31.87 97.97 31.87C98.55 31.87 98.89 31.84 99.39 31.8L99.39 34.66C98.76 34.77 97.97 34.84 97.17 34.84C92.91 34.84 91.24 33.6 91.24 30.44L91.24 21.61L88.31 21.61L88.31 18.68L91.24 18.68ZM30.33 18.8C31 18.73 31.16 18.12 31 17.52L25.8 17.77C25.05 17.84 24.43 18.39 24.58 19.12L26.55 19.33L26.55 28.55L18.81 18.12L13.2 18.46C12.13 18.53 11.75 19.4 11.9 19.99L13.79 20.13L13.79 33.31L12.42 33.66C11.9 33.8 11.75 34.46 11.9 34.73L17.13 34.46C19.02 34.46 19.02 33.25 19.02 33.25L16.66 32.79L16.66 22.81L24.09 33.13C25 34.14 25.31 34.48 26.52 34.48C27.3 34.48 28.21 34.21 29.19 33.75L29.19 19.01L30.33 18.8ZM87.43 26.67C87.43 31.95 84.05 35.1 78.53 35.1C73.01 35.1 69.67 31.95 69.63 26.67C69.63 21.42 73.06 18.24 78.53 18.24C84.05 18.24 87.43 21.42 87.43 26.67ZM126.43 26.67C126.43 31.95 123.05 35.1 117.53 35.1C111.97 35.1 108.63 31.95 108.63 26.67C108.63 21.42 112.05 18.24 117.53 18.24C123.05 18.24 126.43 21.42 126.43 26.67ZM133.08 34.77L128.9 34.77C128.9 34.77 128.9 18.56 128.86 18.56L132.91 18.56L132.91 21.17L133.2 21.17C134.08 19.33 135.92 18.24 138.68 18.24C142.77 18.24 145.03 20.4 145.03 24.28L145.03 34.77L140.85 34.77L140.85 25.16C140.85 22.71 139.68 21.46 137.13 21.46C134.67 21.46 133.08 22.96 133.08 25.35L133.08 34.77ZM106.08 34.77L101.9 34.77L101.9 18.56L106.08 18.56L106.08 34.77ZM73.93 26.67C73.93 30.08 75.61 32.02 78.53 32.02C81.46 32.02 83.13 30.08 83.13 26.67C83.13 23.29 81.46 21.31 78.53 21.31C75.61 21.31 73.93 23.29 73.93 26.67ZM112.93 26.67C112.93 30.08 114.6 32.02 117.53 32.02C120.41 32.02 122.09 30.08 122.13 26.67C122.13 23.29 120.41 21.31 117.53 21.31C114.6 21.31 112.93 23.29 112.93 26.67Z" fill="#000000" fill-opacity="1.000000" fill-rule="evenodd"/>
	</g>
</svg>
