<svg width="110.574219" height="48.000000" viewBox="0 0 110.574 48" fill="none" xmlns="http://www.w3.org/2000/svg" xmlns:xlink="http://www.w3.org/1999/xlink">
	<desc>
			Created with Pixso.
	</desc>
	<defs>
		<clipPath id="clip333_1363">
			<rect id="Company logo" width="110.573250" height="48.000000" fill="white" fill-opacity="0"/>
		</clipPath>
	</defs>
	<rect id="Company logo" width="110.573250" height="48.000000" fill="#FFFFFF" fill-opacity="0"/>
	<g clip-path="url(#clip333_1363)">
		<path id="Vector" d="M89.93 20.59C90.35 21.24 90.49 21.97 90.53 22.8L90.59 23.9L90.59 31.6L90.66 32.7C90.78 34.5 92.28 35.83 94.32 35.94L95.56 36L95.56 23.9L95.62 22.8C95.67 21.98 95.81 21.23 96.24 20.58C96.67 19.92 97.3 19.36 98.05 18.98C98.81 18.59 99.66 18.39 100.53 18.39C101.41 18.4 102.26 18.6 103.01 18.99C103.77 19.37 104.39 19.93 104.82 20.6C105.25 21.24 105.38 21.99 105.43 22.8L105.49 23.9L105.49 31.6L105.55 32.7C105.68 34.51 107.17 35.84 109.22 35.94L110.45 36L110.45 22.8C110.45 20.46 109.41 18.23 107.55 16.58C105.68 14.93 103.16 14 100.53 14C99.12 14 97.73 14.26 96.44 14.78C95.16 15.29 94.01 16.04 93.08 16.98C92.15 16.04 91 15.29 89.72 14.78C88.43 14.26 87.04 14 85.63 14C83.57 14 81.66 14.55 80.07 15.51C79.11 14.55 76.94 14 75.7 14L75.7 36L76.94 35.94C79.02 35.82 80.52 34.52 80.6 32.7L80.67 31.6L80.67 23.9L80.73 22.8C80.78 21.97 80.91 21.24 81.33 20.59C81.77 19.92 82.4 19.37 83.15 18.98C83.91 18.6 84.76 18.4 85.63 18.4C86.5 18.4 87.36 18.6 88.11 18.98C88.87 19.37 89.49 19.92 89.93 20.59ZM4.96 35.94L6.2 36L24.82 36L24.75 34.9C24.59 33.09 23.14 31.77 21.09 31.65L19.85 31.6L8.68 31.6L23.58 18.39L23.51 17.3C23.42 15.47 21.91 14.15 19.85 14.05L18.61 14L0 14L0.06 15.1C0.22 16.89 1.68 18.24 3.72 18.34L4.96 18.4L16.13 18.4L1.24 31.6L1.3 32.7C1.42 34.51 2.9 35.82 4.96 35.94L4.96 35.94ZM70.83 17.22C71.98 18.24 72.9 19.45 73.52 20.79C74.14 22.12 74.46 23.55 74.46 24.99C74.46 26.44 74.14 27.87 73.52 29.2C72.9 30.54 71.98 31.75 70.83 32.77C68.5 34.83 65.34 35.99 62.05 35.99C58.76 35.99 55.6 34.83 53.27 32.77C48.42 28.48 48.42 21.51 53.27 17.22C54.42 16.2 55.79 15.39 57.3 14.83C58.8 14.28 60.41 14 62.04 14C63.67 13.99 65.29 14.28 66.8 14.83C68.31 15.38 69.67 16.19 70.83 17.22L70.83 17.22ZM67.32 20.33C68.71 21.57 69.5 23.25 69.5 25C69.5 26.75 68.71 28.43 67.32 29.67C65.92 30.9 64.02 31.6 62.05 31.6C60.08 31.6 58.18 30.9 56.78 29.67C55.39 28.43 54.6 26.75 54.6 25C54.6 23.25 55.39 21.57 56.78 20.33C58.18 19.09 60.08 18.4 62.05 18.4C64.02 18.4 65.92 19.09 67.32 20.33ZM36 14C37.62 14 39.24 14.28 40.74 14.83C42.25 15.39 43.61 16.2 44.76 17.22C49.61 21.51 49.61 28.48 44.76 32.77C42.44 34.83 39.28 35.99 35.99 35.99C32.69 35.99 29.54 34.83 27.21 32.77C22.36 28.48 22.36 21.51 27.21 17.22C28.36 16.2 29.73 15.39 31.23 14.83C32.74 14.28 34.35 14 35.98 14L36 14ZM41.25 20.33C42.65 21.57 43.43 23.25 43.43 25C43.43 26.75 42.65 28.43 41.25 29.66C39.86 30.9 37.96 31.6 35.99 31.6C34.01 31.6 32.12 30.9 30.72 29.66C29.33 28.43 28.54 26.75 28.54 25C28.54 23.25 29.33 21.57 30.72 20.33C32.12 19.09 34.01 18.4 35.99 18.4C37.96 18.4 39.86 19.09 41.25 20.33L41.25 20.33Z" fill="#2D8CFF" fill-opacity="1.000000" fill-rule="evenodd"/>
	</g>
</svg>
