<svg width="494.000000" height="394.268555" viewBox="0 0 494 394.269" fill="none" xmlns="http://www.w3.org/2000/svg" xmlns:xlink="http://www.w3.org/1999/xlink">
	<defs/>
	<ellipse id="Ellipse 4" cx="169.000000" cy="198.500000" rx="168.500000" ry="35.000000" stroke="#000000" stroke-opacity="1.000000" stroke-width="1.000000"/>
	<ellipse id="Ellipse 5" cx="169.000000" cy="223.500000" rx="168.500000" ry="35.000000" stroke="#000000" stroke-opacity="1.000000" stroke-width="1.000000"/>
	<ellipse id="Ellipse 6" cx="169.000000" cy="248.500000" rx="168.500000" ry="35.000000" stroke="#000000" stroke-opacity="1.000000" stroke-width="1.000000"/>
	<path id="Star 2" d="M228.16 66.53L179.07 19.95L208.2 81.03L141.11 72.2L200.58 104.5L141.11 136.79L208.2 127.96L179.07 189.04L228.16 142.46L240.5 209L252.83 142.46L301.92 189.04L272.79 127.96L339.88 136.79L280.41 104.5L339.88 72.2L272.79 81.03L301.92 19.95L252.83 66.53L240.5 0L228.16 66.53ZM240.5 5.48L228.81 68.53L182.3 24.39L209.9 82.27L146.33 73.9L202.68 104.5L146.33 135.09L209.9 126.73L182.3 184.6L228.81 140.46L240.5 203.51L252.18 140.46L298.69 184.6L271.09 126.73L334.66 135.09L278.32 104.5L334.66 73.9L271.09 82.27L298.69 24.39L252.18 68.53L240.5 5.48Z" fill="#000000" fill-opacity="1.000000" fill-rule="evenodd"/>
	<path id="Star 4" d="M277 177L259.21 222.06L212.89 207.87L237.02 249.87L197.05 277.24L244.94 284.56L241.42 332.87L277 300L312.57 332.87L309.05 284.56L356.94 277.24L316.97 249.87L341.1 207.87L294.78 222.06L277 177Z" fill="#D9D9D9" fill-opacity="1.000000" fill-rule="evenodd"/>
	<path id="Vector" d="M112.19 306.1L135.13 264L158.25 306.1L200.27 329.13L158.25 352.16L135.13 394.26L112.19 352.16L70 329.13L112.19 306.1Z" fill="#B9FF66" fill-opacity="1.000000" fill-rule="nonzero"/>
	<circle id="Ellipse 17" cx="152.500000" cy="186.500000" r="62.500000" fill="#000000" fill-opacity="1.000000"/>
	<circle id="Ellipse 17" cx="152.500000" cy="186.500000" r="62.000000" stroke="#000000" stroke-opacity="1.000000" stroke-width="1.000000"/>
	<ellipse id="Ellipse 18" cx="132.000000" cy="173.000000" rx="10.000000" ry="20.000000" fill="#FFFFFF" fill-opacity="1.000000"/>
	<ellipse id="Ellipse 19" cx="173.000000" cy="173.000000" rx="10.000000" ry="20.000000" fill="#FFFFFF" fill-opacity="1.000000"/>
</svg>
