<svg width="691.632812" height="648.250000" viewBox="0 0 691.633 648.25" fill="none" xmlns="http://www.w3.org/2000/svg" xmlns:xlink="http://www.w3.org/1999/xlink">
	<desc>
			Created with Pixso.
	</desc>
	<defs/>
	<mask id="mask341_594" mask-type="alpha" maskUnits="userSpaceOnUse" x="41.710938" y="0.125000" width="649.859375" height="648.000000">
		<path d="M387.91 155.02L388.06 0.12L386.07 0L366.64 153.71L347.2 0L345.21 0.12L345.21 155.05L306.64 4.97L304.68 5.35L324.26 159.03L267.18 14.9L265.28 15.52L303.85 165.74L229.15 29.78L227.34 30.63L284.58 174.77L193.33 49.29L191.65 50.36L266.51 186.33L160.21 73.28L158.68 74.55L249.92 199.87L130.44 101.1L129.07 102.56L235.35 215.44L104.32 132.45L103.15 134.06L222.79 232.84L82.35 166.84L81.39 168.59L212.41 251.58L64.84 203.63L64.1 205.49L204.54 271.49L52.11 242.36L51.61 244.29L199.18 292.24L44.32 282.37L44.07 284.35L196.5 313.33L41.64 323.04L41.64 325.04L196.5 334.75L44.07 363.73L44.32 365.71L199.18 356L51.61 403.79L52.11 405.72L204.57 376.74L64.1 442.75L64.84 444.61L212.41 396.66L81.39 479.65L82.35 481.4L222.79 415.4L103.15 514.18L104.32 515.79L235.35 432.64L129.07 545.68L130.44 547.14L249.92 448.22L158.68 573.69L160.21 574.96L266.5 461.92L191.65 597.72L193.33 598.79L284.58 473.31L227.34 617.45L229.15 618.3L303.85 482.49L265.28 632.56L267.18 633.18L324.26 489.05L304.68 642.89L306.64 643.27L345.21 493.04L345.21 648.12L347.2 648.25L366.64 494.38L386.07 648.25L388.06 648.12L387.91 493.07L426.47 643.27L428.43 642.89L409 489.02L466.09 633.18L467.99 632.56L429.42 482.49L504.13 618.3L505.93 617.45L448.69 473.31L539.94 598.79L541.63 597.72L466.79 461.94L572.9 574.96L574.44 573.69L483.33 448.2L602.83 547.14L604.2 545.68L497.92 432.64L628.95 515.79L630.12 514.18L510.48 415.4L650.92 481.4L651.88 479.65L520.86 396.66L668.43 444.61L669.17 442.75L528.71 376.74L681.17 405.72L681.66 403.79L534.09 356L688.95 365.71L689.2 363.73L536.77 334.75L691.63 325.04L691.63 323.04L536.77 313.33L689.2 284.35L688.95 282.37L534.09 292.24L681.66 244.29L681.16 242.36L528.74 271.49L669.17 205.49L668.43 203.63L520.86 251.58L651.88 168.59L650.92 166.84L510.48 232.84L630.12 134.06L628.95 132.45L497.92 215.44L604.2 102.56L602.83 101.1L483.33 199.89L574.44 74.55L572.9 73.28L466.78 186.31L541.63 50.36L539.94 49.29L448.69 174.77L505.93 30.63L504.13 29.78L429.42 165.74L467.99 15.52L466.09 14.9L409 159.06L428.43 5.35L426.47 4.97L387.91 155.02ZM387.91 159.05L386.9 162.96L386.91 158.92L387.06 8.15L387.06 0.12L386.06 8.09L367.14 157.7L366.64 161.68L366.13 157.7L347.21 8.03L346.21 0.12L346.21 162.96L345.21 159.07L307.67 13L305.67 5.22L306.69 13.19L325.75 162.78L326.26 166.79L324.77 163.03L269.19 22.68L266.25 15.27L268.24 22.99L305.79 169.27L306.79 173.17L304.85 169.64L232.15 37.33L228.27 30.26L231.24 37.75L286.95 178.03L288.44 181.78L286.07 178.52L197.22 56.34L192.52 49.88L196.38 56.88L269.26 189.26L271.2 192.78L268.44 189.85L164.97 79.79L159.49 73.96L164.2 80.43L253.03 202.44L255.4 205.7L252.29 203.13L136 106.99L129.8 101.87L241.52 220.53L238.11 218.38L110.53 137.57L103.79 133.29L109.95 138.38L226.44 234.56L229.55 237.12L225.9 235.41L81.92 167.74L88.68 172.02L216.24 252.82L219.65 254.98L215.82 253.74L72.14 207.06L64.53 204.58L71.78 207.99L208.5 272.25L212.15 273.96L208.19 273.2L59.78 244.84L51.92 243.34L59.53 245.81L203.21 292.49L207.04 293.74L203.02 293.48L52.31 283.88L44.26 283.37L52.18 284.88L200.53 313.08L204.49 313.83L200.46 314.09L49.7 323.54L41.71 324.04L49.7 324.54L200.46 334L204.49 334.25L200.53 335L52.12 363.22L44.26 364.71L52.25 364.21L203.02 354.76L207.04 354.5L203.21 355.75L59.53 402.28L51.92 404.74L59.78 403.25L208.2 375.03L212.15 374.28L208.51 375.99L71.78 440.25L64.53 443.66L72.14 441.18L215.82 394.51L219.65 393.26L216.24 395.42L88.68 476.22L81.92 480.5L89.16 477.1L225.9 412.84L229.55 411.12L226.44 413.69L109.99 509.83L103.79 514.95L110.58 510.64L238.11 429.71L241.52 427.55L238.76 430.48L135.31 540.51L129.8 546.37L136 541.24L252.29 444.95L255.4 442.38L253.03 445.64L164.17 567.83L159.49 574.28L164.94 568.47L268.44 458.39L271.2 455.46L269.26 458.99L196.39 591.18L192.52 598.2L197.24 591.71L286.07 469.56L288.44 466.3L286.95 470.05L231.23 610.36L228.27 617.82L232.14 610.78L304.85 478.6L306.79 475.08L305.79 478.97L268.24 625.07L266.25 632.81L269.19 625.39L324.77 485.05L326.26 481.3L325.75 485.3L306.69 635.04L305.67 643.02L307.67 635.23L345.21 489.02L346.21 485.12L346.21 648.12L347.21 640.2L366.13 490.39L366.64 486.4L367.14 490.39L386.06 640.14L387.06 648.12L387.06 640.08L386.91 489.16L386.9 485.12L387.91 489.03L425.46 635.29L427.44 643.02L426.44 635.1L407.52 485.28L407.01 481.3L408.49 485.03L464.08 625.38L467.02 632.81L465.03 625.07L427.48 478.97L426.48 475.08L428.42 478.6L501.13 610.78L505 617.82L502.04 610.36L446.32 470.05L444.84 466.3L447.21 469.56L536.03 591.71L540.75 598.2L536.88 591.18L464.02 459L462.07 455.46L464.84 458.4L568.18 568.47L573.63 574.28L568.95 567.83L480.23 445.64L477.87 442.38L480.97 444.95L597.28 541.24L603.47 546.37L597.96 540.51L494.52 430.48L491.76 427.55L495.16 429.71L622.7 510.64L629.48 514.95L623.28 509.83L506.83 413.69L503.73 411.12L507.37 412.84L644.11 477.1L651.35 480.5L644.59 476.22L517.03 395.42L513.62 393.26L517.46 394.51L661.13 441.18L668.74 443.66L661.5 440.25L524.76 375.99L521.12 374.28L525.07 375.03L673.49 403.25L681.35 404.74L673.74 402.28L530.07 355.75L526.23 354.5L530.25 354.76L681.02 364.21L689.01 364.71L681.15 363.22L532.75 335L528.78 334.25L532.81 334L683.58 324.54L691.57 324.04L683.58 323.54L532.81 314.09L528.78 313.83L532.75 313.08L681.09 284.88L689.01 283.37L680.96 283.88L530.25 293.48L526.23 293.74L530.06 292.49L673.74 245.81L681.35 243.34L673.49 244.84L525.08 273.2L521.12 273.96L524.77 272.25L661.5 207.99L668.74 204.58L661.13 207.06L517.46 253.74L513.62 254.98L517.03 252.82L644.59 172.02L651.35 167.74L644.11 171.15L507.37 235.41L503.73 237.12L506.83 234.56L623.33 138.38L629.48 133.29L622.74 137.57L495.16 218.38L491.76 220.53L494.52 217.6L597.96 107.72L603.47 101.87L597.28 106.99L480.97 203.14L477.87 205.7L480.23 202.45L568.93 80.43L573.63 73.96L568.15 79.79L464.83 189.84L462.07 192.78L464.02 189.25L536.9 56.88L540.75 49.88L536.05 56.34L447.21 178.52L444.84 181.78L446.32 178.03L502.03 37.75L505 30.26L501.12 37.33L428.42 169.64L426.48 173.17L427.48 169.27L465.04 22.99L467.02 15.27L464.09 22.68L408.49 163.05L407.01 166.79L407.52 162.8L426.44 13.13L427.44 5.22L425.46 12.94L387.91 159.05Z" fill="#000000" fill-opacity="1.000000" fill-rule="evenodd"/>
	</mask>
	<g mask="url(#mask341_594)">
		<rect x="-785.720703" y="-37.992188" rx="45.000000" width="1152.826538" height="702.852234" fill="#000000" fill-opacity="1.000000"/>
	</g>
	<path d="M95.71 470.22L141.42 495.12L95.71 520.22L70.71 565.83L45.7 520.22L0 495.12L45.7 470.22L70.71 424.41L95.71 470.22Z" fill="#B9FF66" fill-opacity="1.000000" fill-rule="nonzero"/>
	<path d="M217.1 243.68L298.77 288.19L217.1 333.05L172.42 414.54L127.74 333.05L46.06 288.19L127.74 243.68L172.42 161.83L217.1 243.68Z" fill="#191A23" fill-opacity="1.000000" fill-rule="nonzero"/>
</svg>
