<svg width="600.462891" height="515.000000" viewBox="0 0 600.463 515" fill="none" xmlns="http://www.w3.org/2000/svg" xmlns:xlink="http://www.w3.org/1999/xlink">
	<desc>
			Created with Pixso.
	</desc>
	<defs>
		<clipPath id="clip332_1229">
			<rect id="Frame" width="36.000000" height="36.000000" transform="translate(293.000000 427.000000)" fill="white" fill-opacity="0"/>
		</clipPath>
		<clipPath id="clip332_1231">
			<rect id="Frame" width="70.325882" height="70.325882" transform="translate(107.728516 313.000000) rotate(45.000000)" fill="white" fill-opacity="0"/>
		</clipPath>
	</defs>
	<rect id="Frame" width="36.000000" height="36.000000" transform="translate(293.000000 427.000000)" fill="#FFFFFF" fill-opacity="0"/>
	<g clip-path="url(#clip332_1229)">
		<path id="Vector" d="M310.99 432.53L328.6 427.34L323.46 445L328.6 462.6L310.99 457.46L293.34 462.6L298.53 445L293.34 427.34L310.99 432.53Z" fill="#000000" fill-opacity="1.000000" fill-rule="nonzero"/>
		<path id="Vector" d="M328.6 427.34L323.46 445L328.6 462.6L310.99 457.46L293.34 462.6L298.53 445L293.34 427.34L310.99 432.53L328.6 427.34Z" stroke="#FFFFFF" stroke-opacity="1.000000" stroke-width="1.000000"/>
	</g>
	<rect id="Frame" width="70.325882" height="70.325882" transform="translate(107.728516 313.000000) rotate(45.000000)" fill="#FFFFFF" fill-opacity="0"/>
	<g clip-path="url(#clip332_1231)">
		<path id="Vector" d="M124.94 345.5L156.42 362.65L124.94 379.94L107.72 411.35L90.5 379.94L59.03 362.65L90.5 345.5L107.72 313.96L124.94 345.5Z" fill="#000000" fill-opacity="1.000000" fill-rule="nonzero"/>
		<path id="Vector" d="M156.42 362.65L124.94 379.94L107.72 411.35L90.5 379.94L59.03 362.65L90.5 345.5L107.72 313.96L124.94 345.5L156.42 362.65Z" stroke="#FFFFFF" stroke-opacity="1.000000" stroke-width="1.000000"/>
	</g>
	<ellipse id="Ellipse 7" rx="282.630463" ry="58.974152" transform="matrix(0.875627 0.482989 -0.482989 0.875627 317.102 252.826)" stroke="#000000" stroke-opacity="1.000000" stroke-width="1.000000"/>
	<ellipse id="Ellipse 8" rx="282.630463" ry="58.974152" transform="matrix(0.875627 0.482989 -0.482989 0.875627 296.871 289.5)" stroke="#000000" stroke-opacity="1.000000" stroke-width="1.000000"/>
	<ellipse id="Ellipse 9" rx="282.630463" ry="58.974152" transform="matrix(0.875627 0.482989 -0.482989 0.875627 276.643 326.174)" stroke="#000000" stroke-opacity="1.000000" stroke-width="1.000000"/>
	<circle id="Ellipse 14" cx="131.500000" cy="104.500000" r="15.500000" fill="#B9FF66" fill-opacity="1.000000"/>
	<circle id="Ellipse 16" cx="421.000000" cy="435.000000" r="10.000000" fill="#B9FF66" fill-opacity="1.000000"/>
	<circle id="Ellipse 15" cx="81.500000" cy="64.500000" r="23.500000" fill="#000000" fill-opacity="1.000000"/>
	<path id="Vector" d="M305.97 383.59C299.66 385.74 292.46 381.47 289.95 374.07L250.95 259.81L273.74 252.01L312.78 366.43C315.29 373.75 312.23 381.43 305.97 383.59Z" fill="#000000" fill-opacity="1.000000" fill-rule="nonzero"/>
	<path id="Vector" d="M302.56 385C300.72 385 298.84 384.56 297.04 383.66C293.4 381.86 290.5 378.49 289.09 374.34L250.09 260.08C249.94 259.65 250.17 259.14 250.64 258.98L273.43 251.19C273.66 251.11 273.9 251.11 274.1 251.23C274.29 251.34 274.45 251.5 274.52 251.74L313.56 366.15C316.19 373.91 312.9 382.1 306.2 384.41C305.07 384.8 303.81 385 302.56 385ZM252.05 260.35L290.77 373.79C292.03 377.51 294.61 380.57 297.82 382.14C300.41 383.39 303.19 383.62 305.69 382.76C311.49 380.77 314.31 373.56 311.96 366.7L273.19 253.11L252.05 260.35Z" fill="#000000" fill-opacity="1.000000" fill-rule="nonzero"/>
	<path id="Vector" d="M269.71 153.38L195.98 205.98L167.28 235.79L156 255.73L155.96 255.89C153.73 259.33 155.02 267.29 159.21 275.39C163.32 283.39 169.12 288.95 173.19 289.26L173.07 289.34L194.73 291.69L235.25 285.23L321.28 254.44L428.21 272.77L428.95 272.81C402.09 267.79 365.84 231.88 339.48 181.07C313.17 130.31 304.79 80.13 316.34 55.37L316.3 55.37L270.3 152.12L269.71 153.38Z" fill="#B9FF66" fill-opacity="1.000000" fill-rule="nonzero"/>
	<path id="Vector" d="M435.31 131.57C468.04 194.62 473.15 256.87 446.72 270.6C420.3 284.33 372.34 244.34 339.61 181.29C306.88 118.24 301.77 56 328.19 42.27C354.62 28.54 402.58 68.52 435.31 131.57Z" fill="#FFFFFF" fill-opacity="1.000000" fill-rule="evenodd"/>
	<path id="Vector" d="M435.1 274.18C423.59 274.18 409.73 267.76 394.81 255.26C374.49 238.26 354.56 212.06 338.7 181.42C314.7 135.05 304.79 87.49 313.49 60.27C316.38 51.18 321.24 44.83 327.85 41.43C341.01 34.69 359.53 40.41 380.05 57.56C400.37 74.56 420.3 100.77 436.16 131.4C460.2 177.78 470.11 225.33 461.37 252.56C458.48 261.65 453.62 267.99 447.01 271.4C443.44 273.28 439.45 274.18 435.1 274.18ZM339.84 40.41C335.8 40.41 332.04 41.23 328.68 42.99C322.45 46.17 317.91 52.2 315.17 60.86C306.59 87.69 316.46 134.73 340.27 180.72C372.69 243.27 420.22 283.31 446.26 269.95C452.49 266.78 457.03 260.75 459.77 252.09C468.35 225.26 458.48 178.21 434.67 132.22C406.44 77.78 366.81 40.41 339.84 40.41Z" fill="#000000" fill-opacity="1.000000" fill-rule="nonzero"/>
	<path id="Vector" d="M435.1 274.18C423.59 274.18 409.73 267.76 394.81 255.26C374.49 238.26 354.56 212.06 338.7 181.42C314.7 135.05 304.79 87.49 313.49 60.27C316.38 51.18 321.24 44.83 327.85 41.43C336.67 36.88 348.18 38.02 361.14 44.68C373.55 51.06 386.98 62.38 400.06 77.39C400.37 77.74 400.33 78.29 399.98 78.6C399.63 78.91 399.08 78.87 398.77 78.52C372.22 48.05 345.36 34.41 328.68 42.99C322.45 46.17 317.91 52.2 315.17 60.85C306.59 87.69 316.46 134.73 340.27 180.72C368.46 235.13 408.12 272.54 435.06 272.54C439.1 272.54 442.85 271.71 446.22 269.95C452.45 266.78 456.99 260.75 459.73 252.09C468.31 225.26 458.44 178.21 434.63 132.22C427.54 118.52 419.56 105.63 410.98 93.92C410.71 93.52 410.79 92.98 411.18 92.7C411.57 92.43 412.12 92.51 412.39 92.9C421.04 104.69 429.03 117.65 436.2 131.44C460.2 177.78 470.11 225.33 461.37 252.56C458.48 261.65 453.62 267.99 447.01 271.4C443.44 273.28 439.45 274.18 435.1 274.18Z" fill="#000000" fill-opacity="1.000000" fill-rule="nonzero"/>
	<path id="Vector" d="M384.13 158.15C391.71 172.75 392.88 187.15 386.76 190.33C380.64 193.52 369.54 184.26 361.96 169.67C354.39 155.08 353.21 140.67 359.33 137.49C365.45 134.31 376.56 143.56 384.13 158.15Z" fill="#B9FF66" fill-opacity="1.000000" fill-rule="evenodd"/>
	<path id="Vector" d="M384.08 191.84C377.35 191.84 367.95 183.15 361.18 170.03C355.54 159.14 353.23 147.93 355.3 141.47C356.05 139.2 357.26 137.59 358.94 136.73C365.6 133.32 377 142.61 384.9 157.84C390.54 168.73 392.85 179.94 390.78 186.4C390.03 188.67 388.82 190.28 387.14 191.14C386.2 191.61 385.18 191.84 384.08 191.84ZM362 137.71C361.18 137.71 360.39 137.87 359.73 138.22C358.43 138.88 357.5 140.14 356.91 141.98C354.99 148.01 357.22 158.74 362.67 169.24C369.87 183.15 380.71 192.51 386.31 189.61C387.61 188.94 388.55 187.69 389.13 185.85C391.05 179.78 388.78 169.08 383.38 158.59C377.03 146.41 367.95 137.71 362 137.71Z" fill="#B9FF66" fill-opacity="1.000000" fill-rule="nonzero"/>
	<path id="Vector" d="M429.15 259.57C419.05 259.57 406.91 253.93 393.83 243C376.06 228.12 358.59 205.16 344.73 178.37C323.7 137.79 315.05 96.15 322.65 72.29C325.19 64.3 329.46 58.74 335.29 55.72C348.69 48.87 368.38 56.78 389.37 77.42C389.72 77.78 389.72 78.29 389.37 78.64C389.02 78.99 388.51 78.99 388.15 78.64C367.72 58.54 348.73 50.71 336.08 57.25C330.68 60.03 326.72 65.24 324.29 72.8C316.81 96.23 325.43 137.36 346.26 177.58C370.89 225.18 405.54 257.85 429.11 257.85C432.63 257.85 435.88 257.1 438.86 255.61C444.26 252.83 448.22 247.62 450.65 240.06C458.12 216.64 449.51 175.51 428.68 135.28C422.38 123.14 415.33 111.74 407.73 101.44C407.46 101.04 407.54 100.5 407.93 100.22C408.32 99.95 408.87 100.03 409.14 100.42C416.82 110.84 423.9 122.28 430.25 134.5C451.27 175.08 459.93 216.72 452.33 240.57C449.78 248.56 445.52 254.12 439.68 257.14C436.47 258.75 432.95 259.57 429.15 259.57Z" fill="#000000" fill-opacity="1.000000" fill-rule="nonzero"/>
	<path id="Vector" d="M194.77 292.51C194.73 292.51 194.69 292.51 194.69 292.51L173.04 290.16C172.92 290.16 172.8 290.12 172.68 290.04C168.22 289.34 162.58 283.7 158.47 275.79C154.09 267.44 152.79 259.29 155.18 255.46L155.22 255.34L166.5 235.36C166.54 235.28 166.58 235.25 166.61 235.21L195.32 205.4C195.35 205.36 195.39 205.32 195.43 205.28L268.97 152.79L315.48 54.98C315.6 54.78 315.76 54.63 315.99 54.55C316.23 54.47 316.46 54.47 316.66 54.59C317.09 54.78 317.28 55.29 317.09 55.72C305.3 80.99 314.62 131.21 340.23 180.64C365.87 230.15 401.62 266.82 429.15 271.87C429.58 271.95 429.89 272.34 429.85 272.81C429.82 273.24 429.42 273.55 428.99 273.59L428.25 273.55C428.21 273.55 428.17 273.55 428.13 273.55L321.39 255.26L235.57 285.97C235.53 285.97 235.45 286.01 235.41 286.01L194.88 292.47C194.85 292.51 194.81 292.51 194.77 292.51ZM173.66 288.52L194.77 290.79L235.1 284.33L321.08 253.58C321.24 253.54 321.35 253.5 321.51 253.54L417.6 269.99C391.64 258.59 361.29 224.94 338.78 181.46C316.42 138.3 306.44 94.46 311.92 66.77L270.49 153.73C270.42 153.85 270.34 153.97 270.22 154.04L196.57 206.65L167.98 236.3L156.71 256.28C156.71 256.32 156.67 256.36 156.67 256.36C154.63 259.53 156 267.37 159.96 275C163.83 282.49 169.43 288.13 173.27 288.4C173.43 288.4 173.54 288.44 173.66 288.52Z" fill="#000000" fill-opacity="1.000000" fill-rule="nonzero"/>
	<path id="Vector" d="M269.82 153.06L316.3 55.33L316.34 55.33C304.79 80.09 313.21 130.27 339.48 181.03C365.84 231.88 402.09 267.79 429.03 272.73L428.29 272.69L321.51 254.4L319.04 253.97C306.63 251.77 290.07 235.64 278.2 212.6C266.03 188.98 263.87 165.44 269.28 154.24L269.82 153.06Z" fill="#FFFFFF" fill-opacity="1.000000" fill-rule="nonzero"/>
	<path id="Vector" d="M429.03 273.59L428.25 273.55C428.21 273.55 428.17 273.55 428.13 273.55L321.35 255.26L318.89 254.83C305.77 252.52 289.13 235.71 277.42 213.03C264.15 187.26 263.48 164.31 268.5 153.89L269.08 152.71L315.56 55.02C315.68 54.82 315.83 54.67 316.07 54.59C316.3 54.51 316.54 54.51 316.73 54.63C317.17 54.82 317.36 55.33 317.17 55.76C305.38 81.03 314.7 131.25 340.31 180.68C365.95 230.19 401.7 266.85 429.23 271.91C429.66 271.99 429.97 272.38 429.93 272.85C429.81 273.24 429.46 273.59 429.03 273.59ZM311.84 66.77L270.61 153.46L270.02 154.63C265.05 164.97 266.5 188.08 278.95 212.21C290.42 234.46 306.59 250.91 319.2 253.11L321.67 253.54L417.56 269.99C391.6 258.59 361.25 224.94 338.74 181.46C316.38 138.3 306.4 94.46 311.84 66.77Z" fill="#000000" fill-opacity="1.000000" fill-rule="nonzero"/>
	<path id="Vector" d="M193.59 292.4C193.55 292.4 193.51 292.4 193.51 292.4L173 290.2C172.88 290.2 172.76 290.16 172.64 290.08C168.18 289.38 162.54 283.74 158.43 275.83C154.08 267.44 152.79 259.29 155.18 255.46L155.22 255.34L166.5 235.36C166.73 234.93 167.24 234.81 167.67 235.05C168.1 235.28 168.22 235.79 167.98 236.22L156.71 256.28C156.71 256.32 156.67 256.36 156.67 256.36C154.63 259.53 156 267.37 159.96 275C163.83 282.49 169.43 288.13 173.27 288.4C173.39 288.4 173.54 288.44 173.62 288.52L193.67 290.67C194.14 290.71 194.49 291.14 194.41 291.61C194.37 292.04 194.02 292.4 193.59 292.4Z" fill="#000000" fill-opacity="1.000000" fill-rule="nonzero"/>
	<path id="Vector" d="M194.96 291.53C188.31 291.06 178.99 281.62 172.21 268.58C165.05 254.75 163.36 240.45 167.75 235.36L156.04 255.73L155.96 255.89C153.73 259.34 155.02 267.29 159.21 275.4C163.32 283.39 169.12 288.95 173.19 289.26L173.07 289.34L194.96 291.53Z" fill="#FFFFFF" fill-opacity="1.000000" fill-rule="nonzero"/>
	<path id="Vector" d="M194.96 292.4C194.92 292.4 194.92 292.4 194.88 292.4C194.73 292.4 194.53 292.36 194.37 292.36L173 290.2C172.88 290.2 172.76 290.16 172.64 290.08C168.18 289.38 162.54 283.74 158.43 275.83C154.08 267.44 152.79 259.3 155.18 255.46L155.22 255.34L165.52 237.4C165.91 236.38 166.42 235.48 167.04 234.74C167.32 234.38 167.83 234.34 168.18 234.58C168.53 234.85 168.65 235.32 168.42 235.72L166.97 238.18C164.66 244.41 166.93 256.63 172.88 268.07C179.34 280.57 188.15 289.69 194.45 290.51L194.92 290.55C195.39 290.59 195.75 291.02 195.71 291.49C195.75 292.04 195.39 292.4 194.96 292.4ZM173.62 288.52L188.58 290.04C182.82 286.36 176.48 278.76 171.43 268.97C166.53 259.53 164.11 249.74 164.5 242.69L156.71 256.28C156.71 256.32 156.67 256.36 156.67 256.36C154.63 259.53 156 267.37 159.96 275C163.83 282.49 169.43 288.13 173.27 288.4C173.39 288.4 173.54 288.44 173.62 288.52Z" fill="#000000" fill-opacity="1.000000" fill-rule="nonzero"/>
	<path id="Vector" d="M233.8 285.38L235.53 285.03C226.21 286.99 211.49 272.89 201.11 252.87C190.5 232.42 188.5 212.02 196.02 205.98L195.04 206.96L167.83 235.24C163.36 240.26 165.01 254.63 172.21 268.54C179.14 281.94 188.97 291.49 195.67 291.45L233.8 285.38Z" fill="#000000" fill-opacity="1.000000" fill-rule="nonzero"/>
	<path id="Vector" d="M195.63 292.35C188.5 292.35 178.6 282.76 171.43 268.97C164.15 254.87 162.31 240.14 167.16 234.7L193.87 206.96C194.34 206.34 194.88 205.79 195.47 205.32C195.82 205.04 196.33 205.08 196.65 205.4C196.96 205.75 196.96 206.26 196.65 206.57L195.12 208.18C189.68 215.46 192.38 234.11 201.89 252.48C212.15 272.3 226.48 285.89 235.25 284.25L235.37 284.21C235.84 284.13 236.27 284.4 236.39 284.87C236.47 285.34 236.19 285.78 235.72 285.89C235.68 285.89 235.64 285.89 235.6 285.93L234 286.25L233.96 286.25L195.82 292.32C195.75 292.32 195.67 292.35 195.63 292.35ZM191.6 211.82L168.45 235.87C164.15 240.73 166.1 254.91 173 268.19C179.73 281.19 189.25 290.59 195.63 290.63L229.3 285.27C220.22 282.05 209.02 269.95 200.36 253.3C192.14 237.44 188.97 221.3 191.6 211.82Z" fill="#000000" fill-opacity="1.000000" fill-rule="nonzero"/>
	<path id="Vector" d="M359.34 137.47C353.19 140.61 354.09 155.14 361.92 169.63C375.04 193.88 385.49 191.02 386.71 190.59C386.75 190.59 386.75 190.63 386.71 190.63L364.19 208.77C357.57 199.48 351.27 189.14 345.48 177.98C339.95 167.28 335.29 156.63 331.61 146.29L359.34 137.47Z" fill="#000000" fill-opacity="1.000000" fill-rule="nonzero"/>
	<path id="Vector" d="M364.19 209.63C364.15 209.63 364.11 209.63 364.07 209.63C363.84 209.59 363.64 209.47 363.49 209.27C356.71 199.76 350.41 189.34 344.73 178.41C339.29 167.91 334.59 157.22 330.83 146.64C330.75 146.41 330.75 146.17 330.87 145.97C330.99 145.78 331.14 145.62 331.38 145.54L359.1 136.73C359.53 136.61 360 136.81 360.16 137.24C360.32 137.67 360.16 138.14 359.77 138.34C358.43 139 357.46 140.33 356.87 142.29C354.95 148.44 357.3 159.33 362.74 169.32C375.55 192.98 385.41 190.28 386.47 189.88C386.86 189.73 387.33 189.92 387.53 190.28C387.72 190.63 387.65 191.14 387.33 191.41L364.74 209.43C364.58 209.55 364.39 209.63 364.19 209.63ZM332.75 146.84C336.47 157.06 341.01 167.4 346.26 177.59C351.74 188.16 357.85 198.23 364.39 207.51L383.93 191.77C379.46 191.57 371.04 188.24 361.18 170.03C355.46 159.49 353.11 148.36 355.18 141.67C355.46 140.8 355.77 140.06 356.17 139.35L332.75 146.84Z" fill="#000000" fill-opacity="1.000000" fill-rule="nonzero"/>
	<path id="Vector" d="M490.65 32.28C500.01 50.11 493.08 72.19 475.18 81.59C457.28 91 435.18 84.16 425.82 66.33C416.46 48.5 423.39 26.43 441.29 17.02C459.19 7.62 481.29 14.45 490.65 32.28Z" fill="#000000" fill-opacity="1.000000" fill-rule="evenodd"/>
	<path id="Vector" d="M441.56 41.23C443.28 38.88 445.83 37.43 448.73 37.12C450.92 36.88 452.96 37.35 454.88 38.53C455.85 39.12 456.72 39.86 457.54 40.76C458.12 39.7 458.83 38.76 459.65 37.98C461.26 36.41 463.18 35.51 465.33 35.28C468.23 34.96 471.05 35.82 473.24 37.74C475.39 39.62 476.76 42.37 477.12 45.46C477.47 48.63 476.61 51.69 474.41 55.06C472.46 58.07 469.48 61.21 466.03 64.89C464.86 66.14 463.53 67.55 462.16 69.04C461.81 69.43 461.3 69.71 460.75 69.75C460.2 69.83 459.69 69.67 459.22 69.35C457.54 68.18 455.93 67.08 454.52 66.14C450.37 63.32 446.77 60.89 444.19 58.39C441.29 55.61 439.8 52.79 439.45 49.61C439.13 46.52 439.88 43.54 441.56 41.23Z" fill="#FFFFFF" fill-opacity="1.000000" fill-rule="nonzero"/>
	<path id="Vector" d="M576.73 36.11C589.84 49.22 589.84 70.48 576.73 83.59C563.63 96.7 542.38 96.7 529.27 83.59C516.17 70.48 516.17 49.22 529.27 36.11C542.38 23 563.63 23 576.73 36.11Z" fill="#B9FF66" fill-opacity="1.000000" fill-rule="evenodd"/>
	<path id="Vector" d="M553 94.27C534.05 94.27 518.58 78.83 518.58 59.84C518.58 40.88 534.01 25.41 553 25.41C571.99 25.41 587.41 40.84 587.41 59.84C587.41 78.8 571.99 94.27 553 94.27ZM553 27.13C534.99 27.13 520.3 41.78 520.3 59.84C520.3 77.86 534.95 92.54 553 92.54C571.01 92.54 585.69 77.89 585.69 59.84C585.69 41.82 571.05 27.13 553 27.13Z" fill="#B9FF66" fill-opacity="1.000000" fill-rule="nonzero"/>
	<path id="Vector" d="M562.08 63.17C560.2 63.17 558.56 64.07 557.46 65.48L546.14 61.05C546.14 60.89 546.18 60.78 546.18 60.62C546.18 60.35 546.14 60.07 546.1 59.8L557.69 54.43C558.75 55.65 560.32 56.43 562.08 56.47C565.29 56.47 567.95 53.84 567.95 50.59C567.95 47.34 565.33 44.68 562.08 44.68C558.87 44.68 556.21 47.3 556.21 50.55C556.21 50.83 556.25 51.1 556.29 51.38L544.69 56.74C543.64 55.53 542.07 54.74 540.31 54.71C537.1 54.71 534.44 57.33 534.44 60.58C534.44 63.83 537.06 66.5 540.31 66.5C542.19 66.5 543.83 65.6 544.93 64.18L556.25 68.61C556.25 68.77 556.21 68.89 556.21 69.04C556.21 72.29 558.83 74.96 562.08 74.96C565.29 74.96 567.95 72.33 567.95 69.08C567.92 65.83 565.29 63.21 562.08 63.17Z" fill="#000000" fill-opacity="1.000000" fill-rule="nonzero"/>
	<path id="Vector" d="M571.15 142.99C581.75 158.28 577.89 179.32 562.52 189.99C547.16 200.66 526.1 196.92 515.5 181.63C504.9 166.35 508.76 145.31 524.12 134.64C539.49 123.97 560.54 127.71 571.15 142.99Z" fill="#000000" fill-opacity="1.000000" fill-rule="evenodd"/>
	<path id="Vector" d="M534.87 178.37L529.94 151.61C529.7 150.24 530.95 149.11 532.28 149.46L561.46 157.73C562.94 158.16 563.3 160.08 562.08 161.02L537.81 179.5C536.75 180.37 535.14 179.78 534.87 178.37Z" fill="#FFFFFF" fill-opacity="1.000000" fill-rule="nonzero"/>
	<path id="Vector" d="M560.73 248.68C569.91 267.55 561.97 290.34 542.99 299.58C524.02 308.82 501.19 301.02 492.01 282.15C482.83 263.28 490.77 240.5 509.75 231.25C528.72 222.01 551.55 229.81 560.73 248.68Z" fill="#B9FF66" fill-opacity="1.000000" fill-rule="evenodd"/>
	<path id="Vector" d="M526.18 304.34C522.1 304.34 517.95 303.72 513.92 302.34C504.05 299.05 496.07 292.16 491.44 282.84C486.83 273.55 486.12 263.02 489.45 253.15C496.34 232.82 518.5 221.73 538.9 228.51C548.77 231.8 556.76 238.69 561.38 248.01C566 257.3 566.7 267.84 563.37 277.71C557.81 294 542.5 304.34 526.18 304.34ZM526.57 228.27C510.94 228.27 496.3 238.14 491.02 253.73C487.84 263.17 488.51 273.24 492.93 282.09C497.36 290.99 504.99 297.6 514.43 300.74C533.93 307.2 555.11 296.63 561.69 277.2C564.86 267.76 564.2 257.69 559.77 248.84C555.35 239.95 547.71 233.33 538.27 230.19C534.4 228.86 530.44 228.27 526.57 228.27Z" fill="#000000" fill-opacity="1.000000" fill-rule="nonzero"/>
	<path id="Vector" d="M545.83 259.26C545.44 268.78 529.35 291.02 525.51 296.23C525.12 296.78 524.3 296.74 523.94 296.16C521.52 292.24 513.49 279.08 509.3 268.42C507.62 264.19 506.56 260.35 506.68 257.65C507.11 246.84 516.23 238.42 527.04 238.85C537.84 239.36 546.27 248.45 545.83 259.26Z" fill="#000000" fill-opacity="1.000000" fill-rule="nonzero"/>
	<path id="Vector" d="M532.59 252.14C536.09 255.64 536.09 261.32 532.59 264.82C529.09 268.32 523.41 268.32 519.91 264.82C516.4 261.32 516.4 255.64 519.91 252.14C523.41 248.63 529.09 248.63 532.59 252.14Z" fill="#B9FF66" fill-opacity="1.000000" fill-rule="evenodd"/>
</svg>
