<svg width="219.537109" height="36.000000" viewBox="0 0 219.537 36" fill="none" xmlns="http://www.w3.org/2000/svg" xmlns:xlink="http://www.w3.org/1999/xlink">
	<desc>
			Created with Pixso.
	</desc>
	<defs>
		<clipPath id="clip4_215">
			<rect id="Icon" width="36.000000" height="36.000000" fill="white" fill-opacity="0"/>
		</clipPath>
	</defs>
	<g clip-path="url(#clip4_215)">
		<path id="Vector" d="M17.99 5.53L35.59 0.34L30.46 18L35.59 35.6L17.99 30.46L0.34 35.6L5.53 18L0.34 0.34L17.99 5.53Z" fill="#000000" fill-opacity="1.000000" fill-rule="nonzero"/>
	</g>
	<path id="Positivus" d="M48.91 31L48.91 3L60.03 3Q62.59 3 64.59 4.04Q65.85 4.65 66.76 5.6Q67.32 6.19 67.75 6.91Q68.91 8.75 68.91 11.35L68.91 11.87Q68.91 14.36 67.82 16.19Q67.77 16.27 67.72 16.35Q67.18 17.22 66.47 17.9Q65.64 18.69 64.56 19.24Q62.56 20.24 60.03 20.24L53.24 20.24L53.24 31L48.91 31ZM120.29 8.6Q119.56 8.6 118.96 8.31L118.96 8.31Q118.58 8.13 118.26 7.83C117.72 7.3 117.45 6.62 117.45 5.79C117.45 4.97 117.72 4.3 118.26 3.79Q118.62 3.44 119.06 3.25L119.06 3.25Q119.62 3 120.29 3Q121.11 3 121.73 3.34Q122.06 3.52 122.34 3.79C122.87 4.3 123.13 4.97 123.13 5.79C123.13 6.62 122.87 7.3 122.34 7.83Q122.1 8.06 121.83 8.21L121.83 8.21Q121.17 8.6 120.29 8.6ZM148.85 8.6Q148.12 8.6 147.52 8.31L147.52 8.31Q147.14 8.13 146.81 7.83C146.28 7.3 146.01 6.62 146.01 5.79C146.01 4.97 146.28 4.3 146.81 3.79Q147.18 3.44 147.62 3.25L147.62 3.25Q148.18 3 148.85 3C149.68 3 150.36 3.26 150.89 3.79C151.42 4.3 151.69 4.97 151.69 5.79C151.69 6.62 151.42 7.3 150.89 7.83C150.36 8.34 149.68 8.6 148.85 8.6ZM135.85 31C134.65 31 133.69 30.64 132.97 29.91C132.28 29.2 131.93 28.24 131.93 27.04L131.93 14.75L126.49 14.75L126.49 11.27L131.93 11.27L131.93 4.75L136.05 4.75L136.05 11.27L141.93 11.27L141.93 14.75L136.05 14.75L136.05 26.31C136.05 27.12 136.42 27.52 137.17 27.52L141.29 27.52L141.29 31L135.85 31ZM53.24 16.31L59.59 16.31Q61.69 16.31 63 15.31L63 15.31Q63.12 15.21 63.24 15.12Q63.65 14.75 63.93 14.31Q64.59 13.29 64.59 11.83L64.59 11.43Q64.59 9.9 63.88 8.85L63.88 8.85Q63.61 8.45 63.24 8.12Q63.12 8.02 63 7.93L63 7.93Q61.69 6.91 59.59 6.91L53.24 6.91L53.24 16.31ZM81.83 31.56C79.86 31.56 78.1 31.16 76.55 30.35C75.03 29.53 73.83 28.35 72.95 26.83C72.07 25.31 71.63 23.52 71.63 21.43L71.63 20.83C71.63 18.75 72.07 16.97 72.95 15.48Q73.68 14.22 74.7 13.28L74.7 13.28Q75.53 12.51 76.55 11.96C78.1 11.13 79.86 10.72 81.83 10.72C83.8 10.72 85.56 11.13 87.11 11.96Q88.26 12.57 89.16 13.44Q90.08 14.32 90.75 15.48C91.63 16.97 92.07 18.75 92.07 20.83L92.07 21.43C92.07 23.52 91.63 25.31 90.75 26.83Q90.08 27.99 89.16 28.87Q88.26 29.74 87.11 30.35C85.56 31.16 83.8 31.56 81.83 31.56ZM105.28 31.56C102.77 31.56 100.69 31 99.04 29.87C97.39 28.75 96.37 27.06 96 24.79L99.84 23.87C100.05 24.97 100.41 25.83 100.92 26.48C101.43 27.12 102.05 27.57 102.8 27.83C103.57 28.1 104.4 28.24 105.28 28.24C106.59 28.24 107.59 27.98 108.28 27.48C109 26.97 109.36 26.31 109.36 25.52C109.36 24.72 109.03 24.13 108.36 23.75C107.69 23.38 106.71 23.08 105.4 22.83L104.04 22.6C102.71 22.35 101.49 22.01 100.4 21.56C99.31 21.1 98.44 20.48 97.8 19.68Q97.73 19.58 97.66 19.49Q96.84 18.33 96.84 16.6C96.84 14.73 97.53 13.29 98.92 12.27Q101 10.72 104.44 10.72Q107.76 10.72 109.88 12.24Q110.93 12.95 111.62 13.92Q112.35 14.96 112.68 16.27L108.84 17.35C108.6 16.16 108.09 15.31 107.32 14.83Q106.16 14.08 104.44 14.08C103.32 14.08 102.44 14.29 101.8 14.72C101.16 15.12 100.84 15.69 100.84 16.43C100.84 17.24 101.15 17.82 101.76 18.2C102.4 18.57 103.25 18.85 104.32 19.04L105.72 19.27C107.13 19.52 108.43 19.85 109.6 20.27C110.77 20.7 111.69 21.31 112.36 22.12C113.05 22.91 113.4 23.98 113.4 25.31C113.4 27.29 112.67 28.82 111.2 29.91C109.73 31.01 107.76 31.56 105.28 31.56ZM211.41 31.56C208.91 31.56 206.83 31 205.17 29.87Q204.47 29.4 203.93 28.79Q202.53 27.24 202.13 24.79L205.97 23.87C206.18 24.97 206.55 25.83 207.05 26.48C207.56 27.12 208.18 27.57 208.93 27.83C209.71 28.1 210.53 28.24 211.41 28.24C212.72 28.24 213.72 27.98 214.41 27.48Q215.07 27.01 215.33 26.38Q215.49 25.98 215.49 25.52C215.49 24.72 215.16 24.13 214.49 23.75C213.83 23.38 212.84 23.08 211.53 22.83L210.17 22.6C208.84 22.35 207.63 22.01 206.53 21.56C205.44 21.1 204.57 20.48 203.93 19.68C203.29 18.87 202.97 17.85 202.97 16.6C202.97 14.73 203.67 13.29 205.05 12.27C206.44 11.24 208.28 10.72 210.57 10.72C212.79 10.72 214.6 11.22 216.01 12.24Q217.06 12.95 217.75 13.92Q218.48 14.96 218.81 16.27L214.97 17.35C214.73 16.16 214.23 15.31 213.45 14.83C212.68 14.33 211.72 14.08 210.57 14.08C209.45 14.08 208.57 14.29 207.93 14.72C207.29 15.12 206.97 15.69 206.97 16.43C206.97 17.24 207.28 17.82 207.89 18.2C208.53 18.57 209.39 18.85 210.45 19.04L211.85 19.27C213.27 19.52 214.56 19.85 215.73 20.27C216.91 20.7 217.83 21.31 218.49 22.12C219.18 22.91 219.53 23.98 219.53 25.31C219.53 27.29 218.8 28.82 217.33 29.91C215.87 31.01 213.89 31.56 211.41 31.56ZM118.21 31L118.21 11.27L122.34 11.27L122.34 31L118.21 31ZM146.77 31L146.77 11.27L150.89 11.27L150.89 31L146.77 31ZM161.56 31L154.92 11.27L159.28 11.27L164.52 27.96L165.16 27.96L170.4 11.27L174.77 11.27L168.12 31L161.56 31ZM186.32 31.35C184.83 31.35 183.5 31.02 182.32 30.35C181.15 29.69 180.23 28.74 179.56 27.52C178.9 26.29 178.56 24.82 178.56 23.12L178.56 11.27L182.68 11.27L182.68 22.83Q182.68 25.39 183.96 26.63L183.96 26.64C184.82 27.43 186 27.83 187.52 27.83Q189.18 27.83 190.41 27.1L190.41 27.1Q191.04 26.73 191.56 26.16C192.6 25.01 193.12 23.37 193.12 21.24L193.12 11.27L197.24 11.27L197.24 31L193.2 31L193.2 28.04L192.56 28.04C192.19 28.83 191.52 29.6 190.56 30.31C189.6 31.01 188.19 31.35 186.32 31.35ZM81.83 27.87Q83.73 27.87 85.13 27.03Q85.73 26.67 86.23 26.16Q86.46 25.92 86.66 25.66Q87.95 23.98 87.95 21.31L87.95 20.96C87.95 18.9 87.39 17.3 86.27 16.16C85.15 14.98 83.67 14.39 81.83 14.39C80.04 14.39 78.58 14.98 77.43 16.16Q77.26 16.33 77.1 16.53Q75.75 18.19 75.75 20.96L75.75 21.31Q75.75 24.06 77.08 25.75L77.08 25.75Q77.25 25.96 77.43 26.16C78.58 27.3 80.04 27.87 81.83 27.87Z" fill="#000000" fill-opacity="1.000000" fill-rule="evenodd"/>
</svg>
