<svg width="180.000000" height="29.000000" viewBox="0 0 180 29" fill="none" xmlns="http://www.w3.org/2000/svg" xmlns:xlink="http://www.w3.org/1999/xlink">
	<desc>
			Created with Pixso.
	</desc>
	<defs>
		<clipPath id="clip49_268">
			<rect width="29.516691" height="29.000000" fill="white" fill-opacity="0"/>
		</clipPath>
	</defs>
	<g clip-path="url(#clip49_268)">
		<path d="M14.75 4.45L29.18 0.28L24.97 14.5L29.18 28.67L14.75 24.54L0.28 28.67L4.53 14.5L0.28 0.28L14.75 4.45Z" fill="#FFFFFF" fill-opacity="1.000000" fill-rule="nonzero"/>
	</g>
	<path d="M40.1 24.97L40.1 2.41L49.22 2.41Q51.32 2.41 52.96 3.25C54.08 3.79 54.94 4.56 55.55 5.57Q56.5 7.05 56.5 9.15L56.5 9.56Q56.5 11.51 55.65 12.96Q55.59 13.07 55.52 13.17Q55.11 13.82 54.58 14.34Q53.86 15.03 52.93 15.49Q51.29 16.3 49.22 16.3L43.65 16.3L43.65 24.97L40.1 24.97ZM98.63 6.92C97.97 6.92 97.41 6.72 96.96 6.31C96.52 5.88 96.3 5.33 96.3 4.67C96.3 4 96.52 3.46 96.96 3.06C97.41 2.63 97.97 2.41 98.63 2.41C99.31 2.41 99.86 2.63 100.3 3.06C100.74 3.46 100.96 4 100.96 4.67C100.96 5.33 100.74 5.88 100.3 6.31C99.86 6.72 99.31 6.92 98.63 6.92ZM122.04 6.92C121.39 6.92 120.83 6.72 120.37 6.31Q120.13 6.08 119.98 5.79Q119.71 5.3 119.71 4.67Q119.71 4 120.01 3.51Q120.15 3.26 120.37 3.06C120.83 2.63 121.39 2.41 122.04 2.41C122.72 2.41 123.28 2.63 123.71 3.06C124.15 3.46 124.37 4 124.37 4.67C124.37 5.33 124.15 5.88 123.71 6.31C123.28 6.72 122.72 6.92 122.04 6.92ZM111.38 24.97C110.4 24.97 109.61 24.68 109.02 24.1C108.45 23.52 108.17 22.74 108.17 21.78L108.17 11.88L103.71 11.88L103.71 9.08L108.17 9.08L108.17 3.83L111.55 3.83L111.55 9.08L116.37 9.08L116.37 11.88L111.55 11.88L111.55 21.2C111.55 21.84 111.85 22.16 112.46 22.16L115.84 22.16L115.84 24.97L111.38 24.97ZM43.65 13.14L48.86 13.14Q50.61 13.14 51.7 12.29Q51.78 12.23 51.84 12.17C52.59 11.53 52.96 10.65 52.96 9.53L52.96 9.21Q52.96 8 52.41 7.17L52.41 7.17Q52.17 6.82 51.84 6.54Q51.78 6.48 51.7 6.42L51.7 6.42Q50.61 5.57 48.86 5.57L43.65 5.57L43.65 13.14ZM67.09 25.42C65.47 25.42 64.03 25.1 62.76 24.45C61.52 23.79 60.53 22.84 59.81 21.62Q58.73 19.78 58.73 17.27L58.73 16.78Q58.73 14.27 59.81 12.46C60.53 11.24 61.52 10.29 62.76 9.63C64.03 8.96 65.47 8.63 67.09 8.63C68.71 8.63 70.15 8.96 71.42 9.63C72.69 10.29 73.68 11.24 74.41 12.46C75.13 13.67 75.49 15.11 75.49 16.78L75.49 17.27C75.49 18.94 75.13 20.39 74.41 21.62C73.68 22.84 72.69 23.79 71.42 24.45C70.15 25.1 68.71 25.42 67.09 25.42ZM86.32 25.42Q83.24 25.42 81.2 24.06C79.85 23.16 79.01 21.8 78.71 19.97L81.86 19.23C82.03 20.11 82.33 20.81 82.74 21.33C83.16 21.84 83.67 22.21 84.28 22.42Q85.24 22.74 86.32 22.74C87.39 22.74 88.21 22.54 88.78 22.13C89.37 21.72 89.66 21.2 89.66 20.55C89.66 19.91 89.39 19.44 88.84 19.13C88.3 18.83 87.49 18.59 86.42 18.39L85.3 18.2C84.21 18.01 83.21 17.73 82.32 17.36C81.42 17 80.71 16.49 80.18 15.85Q80.11 15.75 80.04 15.65L80.04 15.65Q79.4 14.73 79.4 13.37C79.4 11.86 79.97 10.7 81.1 9.89C82.24 9.05 83.75 8.63 85.63 8.63C87.44 8.63 88.93 9.04 90.09 9.85C91.27 10.65 92.04 11.73 92.39 13.11L89.24 13.98C89.04 13.01 88.62 12.34 87.99 11.95C87.36 11.54 86.57 11.34 85.63 11.34Q84.25 11.34 83.46 11.85C82.94 12.17 82.68 12.64 82.68 13.24C82.68 13.88 82.93 14.35 83.43 14.66C83.96 14.96 84.66 15.18 85.53 15.33L86.68 15.53C87.84 15.72 88.9 15.99 89.86 16.33C90.82 16.67 91.58 17.17 92.12 17.81C92.69 18.46 92.98 19.32 92.98 20.39C92.98 21.98 92.37 23.22 91.17 24.1C89.97 24.98 88.35 25.42 86.32 25.42ZM173.34 25.42C171.28 25.42 169.58 24.97 168.22 24.06C166.86 23.16 166.03 21.8 165.73 19.97L168.88 19.23C169.05 20.11 169.35 20.81 169.76 21.33C170.18 21.84 170.69 22.21 171.3 22.42C171.94 22.64 172.62 22.74 173.34 22.74C174.41 22.74 175.23 22.54 175.8 22.13C176.39 21.72 176.68 21.2 176.68 20.55C176.68 19.91 176.41 19.44 175.86 19.13C175.32 18.83 174.51 18.59 173.43 18.39L172.32 18.2C171.23 18.01 170.23 17.73 169.34 17.36C168.44 17 167.73 16.49 167.2 15.85C166.68 15.2 166.42 14.38 166.42 13.37C166.42 11.86 166.99 10.7 168.12 9.89C169.26 9.05 170.77 8.63 172.65 8.63C174.46 8.63 175.95 9.04 177.11 9.85C178.29 10.65 179.05 11.73 179.41 13.11L176.26 13.98C176.06 13.01 175.64 12.34 175.01 11.95C174.38 11.54 173.59 11.34 172.65 11.34C171.73 11.34 171.01 11.51 170.48 11.85C169.96 12.17 169.7 12.64 169.7 13.24C169.7 13.88 169.95 14.35 170.45 14.66C170.98 14.96 171.68 15.18 172.55 15.33L173.7 15.53C174.86 15.72 175.92 15.99 176.88 16.33C177.84 16.67 178.6 17.17 179.14 17.81C179.71 18.46 180 19.32 180 20.39C180 21.98 179.39 23.22 178.19 24.1C176.99 24.98 175.37 25.42 173.34 25.42ZM96.92 24.97L96.92 9.08L100.3 9.08L100.3 24.97L96.92 24.97ZM120.34 24.97L120.34 9.08L123.71 9.08L123.71 24.97L120.34 24.97ZM132.47 24.97L127.02 9.08L130.6 9.08L134.89 22.52L135.42 22.52L139.71 9.08L143.29 9.08L137.85 24.97L132.47 24.97ZM152.77 25.26C151.54 25.26 150.45 24.99 149.49 24.45C148.52 23.91 147.77 23.15 147.22 22.16C146.68 21.17 146.4 19.99 146.4 18.62L146.4 9.08L149.78 9.08L149.78 18.39C149.78 19.77 150.13 20.79 150.83 21.45C151.53 22.1 152.5 22.42 153.75 22.42C155.13 22.42 156.23 21.97 157.06 21.07Q158.34 19.68 158.34 17.1L158.34 9.08L161.72 9.08L161.72 24.97L158.41 24.97L158.41 22.58L157.88 22.58C157.58 23.23 157.03 23.84 156.24 24.42C155.45 24.98 154.3 25.26 152.77 25.26ZM67.09 22.45C68.58 22.45 69.78 21.99 70.7 21.07Q70.92 20.85 71.1 20.61L71.1 20.61Q72.11 19.27 72.11 17.17L72.11 16.88C72.11 15.22 71.65 13.94 70.73 13.01Q70.34 12.61 69.88 12.32L69.88 12.32Q68.71 11.59 67.09 11.59C65.63 11.59 64.42 12.07 63.48 13.01Q63.32 13.18 63.17 13.37Q62.11 14.7 62.11 16.88L62.11 17.17Q62.11 19.33 63.15 20.69Q63.31 20.89 63.48 21.07C64.42 21.99 65.63 22.45 67.09 22.45Z" fill="#FFFFFF" fill-opacity="1.000000" fill-rule="evenodd"/>
</svg>
